<svg xmlns="http://www.w3.org/2000/svg" viewBox="0 0 398 398">
  <defs>
    <style>
      .cls-2{stroke-width:0;fill:#90bf65}
    </style>
  </defs>
    <path d="M157.57 326.97c7.02 1.85 15.16 3.5 24.26 4.5 6.17.67 11.94.95 17.22.98 5.28-.02 11.05-.3 17.22-.98 9.11-1 17.24-2.65 24.26-4.5.09 3.42-.14 7.88-1.37 12.91-1.89 7.77-5.32 13.51-7.83 17.02.34-2.5.57-6.61-.78-11.35-.85-2.98-2.07-5.34-3.13-7.04-2.33 6.44-5.08 11.61-7.43 15.46-1.77 2.89-5.84 9.14-12.52 15.85-3.19 3.2-6.14 5.67-8.41 7.43-2.28-1.77-5.22-4.23-8.41-7.43-6.69-6.71-10.75-12.95-12.52-15.85-2.35-3.84-5.1-9.02-7.43-15.46-1.06 1.7-2.28 4.06-3.13 7.04-1.35 4.74-1.13 8.84-.78 11.35-2.51-3.51-5.93-9.25-7.83-17.02-1.23-5.03-1.46-9.49-1.37-12.91ZM98.49 347.18c2.38-6.81 8.13-19.98 21.42-30.04 4.59-3.48 9.13-5.86 13.07-7.51-.41-.97-.84-2.23-1.11-3.75-.31-1.73-.3-3.24-.21-4.38-5.87-4-12.68-9.32-19.61-16.27-6.26-6.29-11.17-12.46-14.95-17.87-2.23 1.76-5.48 4.73-8.34 9.18-1.47 2.28-5.13 8.12-5.56 15.58-.41 7.19 2.37 12.69 3.62 15.3 3.75 7.85 8.22 20.11 11.68 39.77Z" class="cls-2"/>
    <path d="M199.04 328.79c27.95 0 52.04-7.21 63.07-17.61v-7.83c-11.03 10.4-35.12 17.62-63.07 17.62-27.95 0-52.04-7.22-63.07-17.62v7.83c11.03 10.4 35.12 17.61 63.07 17.61ZM299.6 347.18c-2.38-6.81-8.13-19.98-21.42-30.04-4.59-3.48-9.13-5.86-13.07-7.51.41-.97.84-2.23 1.11-3.75.31-1.73.3-3.24.21-4.38 5.87-4 12.68-9.32 19.61-16.27 6.26-6.29 11.17-12.46 14.95-17.87 2.23 1.76 5.48 4.73 8.34 9.18 1.47 2.28 5.13 8.12 5.56 15.58.41 7.19-2.37 12.69-3.62 15.3-3.75 7.85-8.22 20.11-11.68 39.77Z" class="cls-2"/>
    <path d="M320.8 188.45c0 70.49-54.51 127.63-121.76 127.63S77.28 258.94 77.28 188.45 131.79 60.82 199.04 60.82 320.8 117.96 320.8 188.45ZM125.93 98.58c-17.67 16.35-25.2 34.68-28.43 42.78-3.53 8.83-11.65 29.89-8.35 57.65.95 8 5.1 35.49 26.87 60.52 11.17 12.84 22.33 19.76 25.04 21.39 23.71 14.25 47.2 14.8 57.98 14.35 10.78.45 34.26-.1 57.98-14.35 2.71-1.63 13.87-8.55 25.04-21.39 21.77-25.03 25.92-52.52 26.87-60.52 3.3-27.77-4.82-48.82-8.35-57.65-3.24-8.1-10.77-26.44-28.43-42.78-27.92-25.83-61.72-28.75-73.11-29.22-11.39.47-45.19 3.39-73.11 29.22Z" class="cls-2"/>
    <path d="M199.04 20.84c6.71 4.32 14.34 10.01 22.38 17.54 8.88 8.32 17.5 20.06 23.34 27.85-8.3-3.88-19.66-7.98-33.65-9.79-4.27-.55-8.31-.82-12.07-.91-3.75.09-7.79.36-12.07.91-13.99 1.8-25.35 5.91-33.65 9.79 5.84-7.79 14.46-19.53 23.34-27.85 8.04-7.53 15.66-13.22 22.38-17.54ZM126.16 216.4c.07.68.44 1.74 1.34 2.43 1.22.94 2.85.68 3.78.52 9.56-1.67 13.83-3.26 13.83-3.26 3-1.12 7.86-2.94 7.7-3.52-.03-.1-.26-.32-3.65.13-5 .66-8.75 1.69-11.22 2.35-2.09.55-5.17 1.34-9 2.22-.36-1.97-.79-4.74-1.04-8.09-.9-12.1 1.34-21.33 3.39-29.48.81-3.22 3.34-12.74 8.87-24.26 2.12-4.41 4.15-8.03 5.74-10.7-2.2 2.16-4.62 4.92-6.91 8.35-1.22 1.82-4.16 6.51-7.7 18.13-2.11 6.93-4.44 14.59-5.35 25.3-.45 5.32-.66 11.87.22 19.87ZM155.41 211.04c.06-3.96.04-7.21 0-9.49-.1-6.07-.32-8.24 0-11.84.34-3.8 1.08-6.87 1.66-8.9 3.29-.62 6.16-1.06 8.51-1.37 5.35-.71 8.03-1.06 8.8-.88.34.08 1.18.3 1.96-.1 1.18-.61 1.44-2.27 1.57-3.03 0 0 .26-1.58 2.25-9.29.45-1.73 1.3-4.2 3.13-7.04-.2 1.17-.43 2.75-.55 4.63-.09 1.38-.29 5.19.65 9.85.44 2.19.87 3.24 1.76 4.11 1.02.99 2.24 1.35 3 1.5 1.99.04 3.6.02 4.63 0 5.83-.12 7.11-.61 11.48-.46 2.53.09 2.69.27 4.11.13 2.91-.29 5.21-1.34 6.72-2.22-.59-.1-1.44-.23-2.48-.33-2.53-.23-4.37-.07-6.2.07-1.85.14-3.76.24-7.57.46-4.6.26-5.98.25-7.5.13-1.81-.14-3.3-.39-4.3-.59-.23-.47-.55-1.16-.85-2.02-.93-2.66-1.05-4.97-1.04-7.24.02-4.32.03-7.59 1.11-11.87 1.41-5.61 2.12-8.42 3.39-10.37.21-.33 1.1-1.63.72-2.09-.22-.26-.77-.16-1.21-.03-1.86 2.21-3.94 5.04-5.87 8.51-2.28 4.1-3.4 7.45-4.79 11.64-1.13 3.39-2.49 8.03-3.62 13.7-3.73.3-7.59.68-11.54 1.17-1.96.24-3.88.5-5.77.78 2.2-8.07 4.77-14.39 6.85-18.88 2.43-5.25 5.01-9.73 6.16-11.74 1.58-2.74 3-5.03 4.11-6.75-2.75 2.6-6.48 6.57-9.98 12.03-4.65 7.26-6.65 13.61-8.41 19.37-1.97 6.44-3.73 12.18-3.82 20.05-.08 7.86 1.54 14.24 2.93 18.39ZM212.54 139.99c.88 1.16 2.08 2.86 3.33 5.02.74 1.29 1.88 3.41 4.57 10.76 3.42 9.35 4.14 12.94 4.37 14.15.43 2.24.65 4.1.78 5.35 2.06.38 3.72.71 4.76.91 8.22 1.63 9.63 2.22 11.74 2.15.36-.01 1.38-.06 2.67.26 1 .25 1.78.63 2.28.91-.48.4-1.25.91-2.28 1.11-1.41.27-2.57-.21-3.07-.39-1.09-.41-3.22-.64-7.5-1.11-2.77-.3-5.72-.41-8.74-1.37-.54-.17-1.6-.54-2.15-1.5-.44-.78-.26-1.44-.26-2.54 0-.79-.09-.97-1.04-4.76-.25-1.01-.64-2.56-1.11-4.5.18 2.19.18 4.06.13 5.48 0 0-.06 1.68-.72 4.43-.25 1.03-.5 1.84-1.04 1.96-.36.08-.76-.17-.98-.46-.53-.69-.13-1.81 0-2.22.66-2.03.52-4.25.52-6.39 0-3.9-.57-6.98-1.43-10.7-.98-4.2-2.49-9.85-4.83-16.57ZM253.5 133.14c.7-1.45 1.44-3.56.52-5.09-.5-.84-1.31-1.19-1.57-1.3-5.49-2.47-11.1-9.39-26.74-14.48-5.26-1.71-17.03-5.42-32.09-3.91-2.3.23-8.95 1.01-16.96 3.91-9.63 3.5-13.88 7.41-15 8.48-1.53 1.46-2.66 2.82-3.39 3.78 2.43-1.63 5.71-3.6 9.78-5.48 5.92-2.72 10.72-3.95 13.7-4.7 3.75-.94 10.08-2.48 18.52-2.61 9.06-.14 16.14 1.42 19.7 2.35 2.97.78 16.44 4.49 29.74 15.65 1.61 1.35 2.89 2.54 3.78 3.39Z" class="cls-2"/>
    <path d="M249.85 158.97c1.88 1.19 3.52 2.14 4.83 2.87 3.15 1.76 4.32 2.19 5.74 2.22.82.01 2.65.05 3.39-1.04.83-1.21.15-3.57-1.96-5.61.5.16 1.79.48 3.26 0 1.93-.63 2.82-2.19 3.13-2.74.33-.59 1.36-2.46.65-4.17-.75-1.8-3.23-2.92-5.99-2.41 1.09-.54 2.74-1.44 4.55-2.81 2.49-1.89 5.48-4.15 6.13-7.7.17-.93.57-3.11-.78-4.3-1.47-1.3-3.87-.46-4.04-.39 1.85-2.9 3.16-5.45 4.04-7.3 2.13-4.48 3.18-7.97 3.52-11.61.36-3.84-.35-4.97-1.04-5.48-.94-.69-2.23-.48-3.13-.26-6.5 1.56-12.54 8.02-13.57 9.13-2.33 2.54-5.15 5.64-7.83 10.57-2.98 5.48-4.31 10.52-4.96 13.96-2.16-1.89-5.33-4.4-9.52-6.78-3.41-1.94-8.1-3.47-17.48-6.52 0 0-5.56-1.81-13.04-1.7-.84.01-2.5.08-3.26 1.17-.57.82-.47 1.99 0 3.39 1.49 4.43 5.52 7.85 8.35 9.91 2.2 1.61 5.41 3.66 9.65 5.48-.48.15-1.42.53-2.22 1.43-.4.45-1.12 1.28-1.04 2.22.05.54.37 1.26 3.13 2.87 1.46.85 2.6 1.52 4.57 2.22 1.51.54 3.68 1.16 6.39 1.43-.37.37-.96 1.06-1.3 2.09-.15.43-.71 2.3.26 4.04 1.37 2.47 4.58 2.48 4.96 2.48 2.12-.03 3.58-1.17 4.04-1.57-.13.61-.24 1.52-.13 2.61.1.96.3 2.82 1.3 3.26.37.16 1.23.3 3.26-1.43 1.59-1.37 4.19-4.13 6.13-9.52Z" class="cls-2"/>
    <path d="M306.07 190.27c-.18-.85-1.09-1.35-2.22-1.96-.99-.53-1.93-.85-2.74-1.04-.23-1.59-.63-3.85-1.3-6.52-1.14-4.52-2.77-10.93-7.04-17.22-2.36-3.47-3.95-7.6-7.04-10.43-.21-.19-.86-.75-.91-1.57-.06-.95.74-1.36.91-2.35.2-1.12-.57-2.12-1.04-2.74-1.29-1.69-3.02-2.27-5.35-3.13-1.57-.58-3.95-1.5-6.95-2.76h-.94l-2.28 2.11c1.93.27 3.49.63 4.57.91 3.42.9 6.89 1.86 8.61 4.57.75 1.18.67 1.91.65 2.09-.13 1.03-.95 1.49-2.09 3-.64.85-1.06 1.6-1.3 2.09l-.2.33c-.81-.91-2.01-2.21-3.59-3.65-1.91-1.75-3.24-2.97-5.28-4.04-1.1-.58-2.82-1.33-5.15-1.76l-2.22.78-.58.58c-2.21-3.64-4.35-6.63-6.47-9.58-1.69-2.36-3.67-4.95-7.04-7.3-2.59-1.81-5.06-2.82-6.78-3.39 1.54 1.31 3.65 3.19 6 5.61 1.75 1.8 9.9 10.34 16.83 24.52 2.81 5.76 7.3 15.15 9.13 28.43.49 3.53 1.52 12.7-.13 24.26-2.62 18.36-10.5 32.11-16.17 40.17 6.02-6.16 9.74-12.24 12-16.7 1.48-2.93 2.65-5.77 3.58-8.47.84 1 1.91 2.29 3.14 3.84 2.9 3.69 5.65 7.18 8.15 11.67 1.45 2.61 3.27 6.36 4.76 11.22l2.09-3.46c-1.36-3.55-2.69-6.52-3.78-8.8-2.54-5.32-4.9-9.23-6.46-11.8-1.66-2.74-3.16-5.02-4.3-6.72.77.03 2.02.11 3.52.39 3 .56 3.89 1.33 5.48 1.04 1.73-.31 2.83-1.62 3.65-2.61 1.22-1.46 1.61-2.7 2.87-7.17 2.03-7.24 2.22-8.3 2.35-9.13.39-2.55.5-4.72.52-6.26 1.33.87 2.32 1.71 3 2.35.57.53.85.85 1.04 1.3.51 1.16.12 2.35 0 2.74-.94 3.09-.5 6.45-.91 9.65-.26 2-.6 4.94-.91 8.61 1.18-2.04 1.91-3.82 2.35-5.09.56-1.59 2.11-6.03 1.83-11.48-.08-1.59-.28-2.4 0-3.91.29-1.57.66-1.56 1.96-5.09 1.09-2.97.78-2.85 1.43-4.04.51-.94.92-1.41.78-2.09Zm-23.22-35.22c.95 1.18 2.22 2.81 3.59 4.83.6.89 3.32 4.94 6.13 11.02 1.61 3.5 3.48 8.15 5.02 13.83-.78-.24-1.66-.57-2.61-1.04-.64-.32-1.2-.65-1.7-.98.06-1.1.08-3.99-1.83-6.65-.73-1.01-1.54-1.73-2.22-2.22.45.98.92 2.16 1.3 3.52.43 1.53.66 2.93.78 4.11-3.22-1.93-5.9-3.69-7.96-5.09-4.13-2.82-5.72-4.19-6.98-5.41-1.41-1.37-2.48-2.62-3.2-3.52 1.85-2.07 3.76-4.35 5.67-6.85 1.45-1.89 2.77-3.75 3.98-5.54Zm-8.48.13c.48.11 1.17.33 1.89.78.98.61 1.58 1.36 1.89 1.83-.72.99-1.46 1.99-2.22 3-1.47 1.95-2.93 3.83-4.39 5.65-.55-1.51-1.18-3.15-1.9-4.89.87-1.04 1.75-2.16 2.64-3.37.75-1.02 1.45-2.03 2.09-3Zm-11.08-6.43 3.18.4 1.37 2.51c1.24.11 2.18.4 2.8.65 1.11.44 1.27.76 1.3.98.05.36-.23.67-.39.85-1.8 2.03-1.51 3.35-3.28 4.29-.35-.76-.7-1.54-1.08-2.33-1.33-2.77-2.63-5.18-3.9-7.35Zm28.82 52.54c-.14 1.41-.51 4.62-1.43 8.67-.28 1.22-1.01 3.2-2.48 7.17-.15.41-.46 1.23-1.24 1.96-.77.72-1.62 1-2.02 1.11-1.59.42-3-.14-4.76-.85-1.89-.76-2.19-1.27-3.52-1.43-.4-.05-.76-.04-1.11-.02 1.05-4.71 1.44-8.7 1.7-11.59.24-2.7.81-10.49-.65-20.35-.19-1.28-.4-2.47-.61-3.6 1.36.98 2.72 1.97 4.07 2.95 4.16 3.02 8.32 6.04 12.46 9.07-.02 1.75-.1 4.12-.39 6.91Zm10.37-8.28c-.84 1.78-1.78 3.27-2.67 4.5-.92-.79-2.39-2.04-4.24-3.52-5.35-4.3-8.34-6.15-12.72-9.46-1.91-1.45-4.6-3.55-7.77-6.31-.46-1.9-.9-3.47-1.23-4.65-.18-.64-.4-1.37-.64-2.17 1.57 1.39 3.67 3.17 6.25 5.11 1.05.79 4.1 3.06 9.13 6.13 3.72 2.28 8.7 5.1 14.87 8.02-.27.75-.59 1.53-.98 2.35Z" class="cls-2"/>
    <path d="M240.46 254.45c-4.02.84-7.94 1.58-11.74 2.22 3-3.03 6.79-7.35 10.43-13.04 1.86-2.91 7.52-12.17 10.7-25.7.74-3.14 3.23-14.58 1.7-29.61-.38-3.68-1.49-12.36-5.22-22.7-6.56-18.16-17.38-30.83-25.17-38.35 13.94 16.31 20.33 31.68 23.35 40.83 2.31 7.01 4.96 15.04 4.96 24.13 0 0 .93 11.79-1.83 25.04-.54 2.58-1.3 5.63-3.52 8.74-.66.93-2.87 3.84-8.87 7.04-6.72 3.59-12.68 4.6-20.61 5.87-4.6.74-7.79 1.23-12.26 1.17-4.54-.06-7.75-.66-13.3-1.7-6.05-1.13-10.02-1.85-15.26-3.78-3.88-1.43-8.14-3.03-12.91-6.52-2.86-2.09-4.97-4.18-6.39-5.74-.84-1.55-.89-2.72-.78-3.52.14-1.03.64-1.47.91-2.74.29-1.34.31-2.51.26-3.39-.66.53-1.69 1.49-2.48 3-.41.79-1.17 2.28-1.04 4.3.11 1.81.87 3.13 1.3 3.78.31 4.8.97 10.2 2.22 16.04.73 3.42 1.58 6.6 2.48 9.52-1.83-1.2-4.07-3.03-6-5.74-2.33-3.27-3.16-6.36-4.04-9.65-.59-2.21-1.18-5.07-1.43-8.48-.52 2.22-.96 4.95-1.04 8.09-.13 4.61.56 8.5 1.3 11.35-3.81-1.68-8.46-4.15-13.3-7.83-3.58-2.71-6.46-5.48-8.74-7.96-2.15-9.87-4.12-25.05-1.17-43.04.56-3.44 3.78-22.12 13.57-38.09 5.27-8.6 12.52-16.57 12.52-16.57 2.2-2.41 4.15-4.35 5.61-5.74-2.28 1.17-5.46 3.05-8.74 6-.46.41-1.01.93-1.68 1.63-1.42-.53-2.63-.58-3.38-.55-.62.02-3.66.14-5.77 2.54-.86.97-1.26 1.99-1.47 2.64-3.5.18-6.34.76-8.32 1.27-2.38.62-6.18 2.64-13.7 6.65-.74.4-2.08 1.14-2.74 2.64-.14.33-.75 1.58-.29 2.84.17.47.41.74.88 1.27.53.6 1.33 1.52 2.35 2.74-1.12 1.44-2.51 3.37-3.91 5.77-1.05 1.79-3.35 5.94-5.12 11.73-1.42 4.62-2.05 8.81-2.31 12.24-1.9 1.15-3.48 1.93-4.6 2.45-1.13.52-2.67 1.16-4.01 2.64-.45.5-.73.93-.78 1.47-.08.87.51 1.3 1.27 2.54 1.05 1.71 1.53 3.52 1.66 4.01.31 1.14.33 1.81.98 2.54.26.29.78.88 1.47.88.73 0 1.04-.68 2.25-1.57.66-.48 1.26-.79 1.66-.98.16 1.45.41 2.99.78 4.6 1.32 5.75 3.7 10.31 5.87 13.6-1.16-3.62-2.24-7.99-2.84-13.01-.34-2.88-.48-5.57-.49-8.02 1.53-1.17 3.07-2.35 4.6-3.52.13 1.88.32 4.58.59 7.83 0 0 .22 2.67 1.08 9.2.58 4.41.95 6.62 2.74 7.92.64.46 1.32.71 2.05.98 2.14.78 4.05.84 5.27.77l-.05-.42c.42 3.55 1.01 7.31 1.82 11.28 1.17 1.09 2.29 2.09 3.36 3.02-1.16 1.16-2.56 2.7-4.01 4.67-3.97 5.39-5.68 10.47-6.39 12.91-.54 1.87-1.15 4.49-1.43 7.7l2.22 2.09c.15-1.63.46-4 1.17-6.78.74-2.89 1.93-7.34 5.22-12 1.16-1.65 3.07-3.98 5.95-6.29.95.78 1.84 1.49 2.66 2.12 4.83 3.73 8.85 6.28 11.74 8.09 2.71 1.7 5.05 3.06 6.78 4.04-.22-2.17-.43-4.35-.65-6.52.71 1.1 1.79 2.67 3.26 4.43 1.6 1.92 2.93 3.53 5.09 5.09 1.1.8 2.83 1.88 5.22 2.74-1.55-4.33-2.68-8.17-3.52-11.35-.58-2.18-1.51-5.75-2.35-10.57-.51-2.93-.83-5.46-1.04-7.43 1.71 1.51 4.24 3.57 7.57 5.61 8.49 5.22 16.25 6.76 24.26 8.35 4.8.95 9.9 1.93 16.83 1.83 1.92-.03 5.72-.17 11.61-1.17 6.32-1.08 15.55-3.24 26.61-7.96-1.12 2.86-2.6 6-4.57 9.26-4.94 8.21-10.92 13.79-15.52 17.35 3.92-.03 7.18-.28 9.52-.52 6.77-.69 12.44-1.32 18.65-4.3 3.03-1.45 5.32-3.05 6.78-4.17-5.15 1.39-10.59 2.71-16.3 3.91ZM125.4 166.62c-2.78-3.42-5.07-6.01-6.71-7.79-.08-.09-.3-.39-.61-.83.55-.55 1.1-1.12 1.65-1.71.56-.59 1.1-1.18 1.63-1.76.91.95 1.6 1.79 2.09 2.41 1.59 2.05 2.66 3.96 3.58 5.62-.54 1.29-1.09 2.64-1.63 4.06Zm2.73-6.63c-.06-.1-.11-.19-.17-.3-.45-.79-1.09-1.94-1.96-3.26-.57-.87-1.35-2-2.35-3.26 1.23-1.05 2.34-1.85 3.2-2.41 1.49-.99 3.83-2.53 7.17-3.52.18-.05.35-.1.51-.14-1.82 3.18-4.08 7.51-6.4 12.91Zm8.24-22.61c.49-.85 1.44-.99 3.2-1.5.84-.24 2.01-.62 3.39-1.16-1.33 1.55-2.99 3.71-5.03 6.81s-1.61-1.19-1.82-2.65c-.02-.13-.12-.84.26-1.5Zm-23.48 11.61c.17-.61.67-.96.98-1.17 2.53-1.73 4.11-2.15 4.11-2.15 3.72-1 2.81-1.52 9.72-3.72 1.64-.52 3.83-1.17 6.46-1.83.18.36.37.73.59 1.11.32.57.65 1.09.98 1.57-5.97 2.67-10.33 5.46-12.72 7.3-2.98 2.31-4.47 3.46-5.15 4.7-.32.57-.58 1.19-1.09 1.25-.72.08-.75-1.19-3.28-4.9-.23-.34-.85-1.25-.59-2.15Zm-1.89 14.9c1.13-2.06 2.33-3.92 3.52-5.58 1.07 1.25 2.21 2.53 3.42 3.82 1.92 2.04 3.83 3.89 5.67 5.58-2.26 2.3-4.89 4.69-7.92 7.04-1.23.95-2.43 1.83-3.62 2.64-.07-1.04-.13-2.09-.2-3.13-.44.54-1.02 1.35-1.47 2.45-.46 1.13-.63 2.13-.68 2.84l-4.89 2.64c.78-5.05 2.45-11.53 6.16-18.29Zm8.15 34.08c-.24 5.15-.22 11.8.62 19.6l-.06-.53c-.57.04-1.24.04-1.96-.03-1.32-.13-2.41-.46-3.23-.78-1.67-4.06-2.45-7.53-2.84-9.98-.54-3.36-.6-6.33-.68-10.17-.05-2.28-.03-4.17 0-5.48 1.58-1.32 3.27-2.66 5.09-4.01 1.57-1.16 3.1-2.24 4.59-3.25h.01c-1.12 6.13-1.38 11.06-1.54 14.63Zm2.24-18.12c-4.52 3.42-9.05 6.84-13.62 10.26-3.57 2.67-7.13 5.34-10.68 7.98-.34-1.3-.8-2.52-1.84-4.27-.55-.92-1.12-1.7-1.66-2.35 1.18-.57 2.84-1.4 4.79-2.45 1.44-.77 6.46-3.5 13.01-8.02 3.11-2.14 4.7-3.25 6.85-5.09 2.55-2.19 4.51-4.23 5.88-5.77-.89 2.59-1.74 5.42-2.49 8.64-.09.36-.15.7-.23 1.06h-.01Z" class="cls-2"/>
    <path d="M203.67 236.45c-.03-.81-.12-2.94-1.57-4.3-.25-.24-.98-.91-1.96-.91-1.2 0-2.09 1.02-2.35 1.3-2.36 2.6-5.94 3.75-8.74 5.87-3.44 2.6-5.99 4.52-8.2 5.98-.96 1.59-2.35 3.42-4.33 5.11-5.46 4.65-11.67 5.05-13.7 5.09 2.67-1.29 4.81-2.6 6.39-3.65 1.45-.96 2.75-1.84 4.03-2.92-3.87 1.12-7.4 1.24-10.81 1.36-6.14.21-9.21.32-12-.52-1.5-.45-4.15-1.43-7.3-.65-.62.15-1.79.19-2.61 1.04-.75.78-.87 1.79-.91 2.22-.77 7.38 0 12.65 0 12.65 1.21 8.3 1.03 9.82 2.35 14.74.97 3.64 1.81 5.59 3.65 6.91 1.88 1.35 3.94 1.42 6.13 1.43 10.04.07 14.22-.65 14.22-.65 11.39-1.98 17.09-2.97 22.43-6.13 2.18-1.29 6.16-3.69 9.78-8.22 6.36-7.95 6.06-17.21 5.48-35.74Z" class="cls-2"/>
    <path d="M233.41 259.92c-6.86-2.83-8.55-4.24-9.65-5.35-.24-.24-.48-.49-.72-.76.34 1 .68 1.87.98 2.59 1.3 3.13 2.73 5.5 4.83 9 1.07 1.78 1.99 3.22 2.61 4.17-2.75-2.52-6.95-7.03-9.91-13.83-1.14-2.62-1.89-5.1-2.39-7.32-1.93-3.17-3.54-6.53-4.39-8.86-.28-.76-1.03-2.91-3-4.83-.93-.9-1.84-1.48-2.48-1.83-.68.18-2.36.74-3.65 2.35-.56.7-.91 1.43-1.17 2.22-.24.73-.39 1.45-.49 2.16.25 1.17.51 2.55.75 4.1.63 4.08 1.34 8.67.78 13.7-.16 1.47-.95 7.83-4.83 13.96-5.77 9.12-15.15 12.61-19.7 13.86 1.37 1.52 3.36 3.29 6.13 4.53 1.53.68 3.26.99 6.65 1.57 6.3 1.07 9.53 1.6 13.57 1.04 2.5-.35 4.49-.98 5.74-1.43l-14.02-14.35 26.01 20.21c9.26.85 20.07-3.78 24.79-11.21.79-1.24 3.33-5.81 5.09-12 .77-2.7 1.19-5.01 1.43-6.65-9.86-2.09-17.57-4.82-22.96-7.04ZM142.76 283.27c-1.24-1.48-2.91-3.7-4.43-6.65-2.79-5.42-3.51-10.27-4.04-14.09-.33-2.38-.63-5.63-.52-9.52.27-.19 2.22-1.67 2.22-4.04 0-.91-.29-1.63-.52-2.09-1.32 1.8-2.65 3.84-3.91 6.13-3.75 6.83-5.46 13.36-6.26 18.39l1.83 1.7 1.17-3.78 2.09-5.09c.59 2.34 1.28 4.78 2.09 7.3 1.11 3.47 2.3 6.69 3.52 9.65l6.78 2.09ZM265.37 278.18c.74-1.44 1.48-3.01 2.19-4.7.71-1.68 1.33-3.3 1.85-4.83.21.97.39 2.31.26 3.91-.16 1.99-.72 3.56-1.17 4.57l3.91-1.57c.89-3.66 3.31-15.58-3.52-25.17-1.12-1.57-2.36-2.9-3.65-4.04.85 1.81 1.87 4.42 2.48 7.7.41 2.2 1.11 6.26 0 11.22-.87 3.85-2.44 6.49-4.17 9.39-1.73 2.9-3.49 5.12-4.83 6.65l6.65-3.13ZM192.07 225.68c4.46 1.82 9.95 2.4 12.33 2.1s11.53-.87 13.68-4.38c.5-.81-1.49-1.52-2.28-.51s-2.95 2.16-5.69 2.87-6.25 1.09-8.1 1.03c-1.71-.05-8.8-1.98-9.19-2.28s-1.09-.1-1.19.2.45.96.45.96ZM219.03 198.58l1.72 1.82-6.78 1.12c13.05 5.15 16.34 5.05 19.43 4.95s14.55-2.46 14.55-2.46l-7.27-1.52 5.15-2.53v.24c-7 2.39-19.3 1.4-27.27-1.8M159 202.62c1.93 1.66.55 6.9.55 6.9 4.69-14.21 16.56-16.56 27.19-14.56l-6.07-4.35c-5.52-1.38-14.77 2.62-20.15 7.25 3.59-2.83 8.97-4.07 8.97-4.07s-5.66 3.31-10.49 8.14v.69Z" class="cls-2"/>
    <path d="M184.25 203.72c-.28-4.16-.48-6.93-2.76-8.97-3.27-2.91-7.98-1.77-8.42-1.66-.46.12-4.67 1.29-6.49 5.38-1.35 3.06-.53 5.87.14 8.14.66 2.24 2.11 7.17 6.76 9.11.36.15 5.16 2.06 8.42-.41 2.98-2.27 2.68-6.69 2.35-11.59Zm-10.87-3.21c-1.2.55-1.6 1.19-1.76 1.66-.3.89.19 1.54-.31 2.38-.05.09-.5.83-1.14.83-.72 0-1.26-.92-1.45-1.55-.3-.99.1-1.86.52-2.79.43-.96 1-2.22 2.28-2.69.24-.09 1.39-.52 1.97.1.41.45.4 1.31-.1 2.07Zm6.18 10.66c-.53.18-1.08-.04-1.38-.41-.4-.49-.39-1.27.07-1.72.34-.33.86-.44 1.31-.28.52.19.84.71.83 1.24-.01.49-.31.99-.83 1.17Z" class="cls-2"/>
    <path d="M0 0h398.09v398.09H0z" style="stroke-width:0;fill:none"/>
</svg>
